<!DOCTYPE svg PUBLIC "-//W3C//DTD SVG 1.1//EN" "http://www.w3.org/Graphics/SVG/1.1/DTD/svg11.dtd">
<!-- Uploaded to: SVG Repo, www.svgrepo.com, Transformed by: SVG Repo Mixer Tools -->
<svg width="64px" height="64px" viewBox="-2.4 -2.4 28.80 28.80" fill="none" xmlns="http://www.w3.org/2000/svg" stroke="#16924c">
<g id="SVGRepo_bgCarrier" stroke-width="0"/>
<g id="SVGRepo_tracerCarrier" stroke-linecap="round" stroke-linejoin="round" stroke="#CCCCCC" stroke-width="0.43200000000000005"/>
<g id="SVGRepo_iconCarrier">
<path fill-rule="evenodd" clip-rule="evenodd" d="M5.4 3h13.2A2.4 2.4 0 0 1 21 5.4v13.2a2.4 2.4 0 0 1-2.4 2.4H5.4A2.4 2.4 0 0 1 3 18.6V5.4A2.4 2.4 0 0 1 5.4 3Zm11.414 6.581a1 1 0 1 0-1.628-1.162l-4.314 6.04-2.165-2.166a1 1 0 0 0-1.414 1.414l3 3a1 1 0 0 0 1.52-.126l5-7Z" fill="#55ce89"/>
</g>
</svg>