<?xml version="1.0" encoding="UTF-8"?>
<svg id="Layer_2" data-name="Layer 2" xmlns="http://www.w3.org/2000/svg" viewBox="0 0 48.88 48.88">
  <defs>
    <style>
      .cls-1 {
        fill: #fff;
      }

      .cls-1, .cls-2 {
        stroke-width: 0px;
      }

      .cls-2 {
        fill: #05b0c5;
      }
    </style>
  </defs>
  <g id="Layer_1-2" data-name="Layer 1">
    <g>
      <rect class="cls-2" width="48.88" height="48.88" rx="11.64" ry="11.64"/>
      <g>
        <path class="cls-1" d="M24.11,34.58h-7.64V12.48h9.75c0,.12,0,.25,0,.38,0,1.22,0,2.43,0,3.65,0,.53.1.63.64.63,1.2,0,2.41,0,3.61,0,.13,0,.27,0,.43,0v11.11c-2.26-1.09-4.34-.89-6.06.98-1.42,1.55-1.54,3.38-.73,5.34ZM23.66,20.08h0c1.57,0,3.13,0,4.7,0,.26,0,.45-.1.46-.38.01-.3-.17-.42-.46-.42-.08,0-.15,0-.23,0-2.98,0-5.97,0-8.95,0-.12,0-.26,0-.37.03-.29.08-.4.47-.16.65.11.09.3.12.45.12,1.52,0,3.03,0,4.55,0ZM23.66,22.89c-1.38,0-2.76,0-4.14,0-.21,0-.43,0-.64,0-.24.02-.39.18-.34.4.04.15.21.27.34.38.05.04.17.01.26.01,3.02,0,6.04,0,9.06,0,.09,0,.21.03.26-.01.14-.12.32-.26.33-.41.01-.11-.19-.27-.33-.36-.08-.05-.22-.02-.33-.02-1.49,0-2.98,0-4.47,0ZM21.29,27.3c.76,0,1.53,0,2.29,0,.27,0,.48-.08.49-.38,0-.32-.21-.42-.5-.42-1.52,0-3.03,0-4.55,0-.29,0-.51.1-.49.42.01.3.23.38.5.38.75,0,1.5,0,2.25,0Z"/>
        <path class="cls-1" d="M28.42,36.4c-2.16,0-3.99-1.82-3.99-3.97,0-2.22,1.8-4.01,4.03-4,2.16,0,3.95,1.83,3.95,4,0,2.16-1.82,3.97-3.99,3.97ZM28.01,33.15c0,.46,0,.93,0,1.39,0,.29.09.51.42.5.31,0,.4-.21.4-.48,0-.94,0-1.88,0-2.82,0-.27-.09-.48-.39-.49-.32,0-.42.21-.42.5,0,.46,0,.93,0,1.39ZM28.88,30.24v-.18c-.16-.1-.31-.27-.47-.29-.24-.03-.39.16-.39.4,0,.25.17.42.41.38.17-.03.3-.21.45-.32Z"/>
        <path class="cls-1" d="M30.16,16.31h-3.09v-3.05c1,.99,2.06,2.04,3.09,3.05Z"/>
      </g>
    </g>
  </g>
</svg>