<?xml version="1.0" encoding="UTF-8"?>
<svg id="Layer_2" data-name="Layer 2" xmlns="http://www.w3.org/2000/svg" xmlns:xlink="http://www.w3.org/1999/xlink" viewBox="0 0 11.58 11.58">
  <defs>
    <style>
      .cls-1 {
        fill: url(#linear-gradient);
      }

      .cls-1, .cls-2 {
        stroke-width: 0px;
      }

      .cls-2 {
        fill: #f2f2f2;
      }
    </style>
    <linearGradient id="linear-gradient" x1="5.79" y1="-4.43" x2="5.79" y2="12.87" gradientUnits="userSpaceOnUse">
      <stop offset=".35" stop-color="#fc5d62"/>
      <stop offset=".55" stop-color="#e53a3e"/>
      <stop offset=".73" stop-color="#d42225"/>
      <stop offset=".83" stop-color="#cf191c"/>
    </linearGradient>
  </defs>
  <g id="Layer_1-2" data-name="Layer 1">
    <g>
      <rect class="cls-1" width="11.58" height="11.58" rx="2.9" ry="2.9"/>
      <path class="cls-2" d="M7.43,5.99l1.54-1.54c.39-.39.39-1.02,0-1.41s-1.02-.39-1.41,0l-1.54,1.54-1.54-1.54c-.39-.39-1.02-.39-1.41,0s-.39,1.02,0,1.41l1.54,1.54-1.54,1.54c-.39.39-.39,1.02,0,1.41.2.2.45.29.71.29s.51-.1.71-.29l1.54-1.54,1.54,1.54c.2.2.45.29.71.29s.51-.1.71-.29c.39-.39.39-1.02,0-1.41l-1.54-1.54Z"/>
    </g>
  </g>
</svg>