<?xml version="1.0" encoding="UTF-8"?>
<svg id="Layer_2" data-name="Layer 2" xmlns="http://www.w3.org/2000/svg" viewBox="0 0 16.62 23.31">
  <defs>
    <style>
      .cls-1 {
        fill: #308388;
        stroke-width: 0px;
      }
    </style>
  </defs>
  <g id="Layer_1-2" data-name="Layer 1">
    <path class="cls-1" d="M8.3,23.31c-1.93-2.18-3.68-4.44-5.2-6.88C1.87,14.44.77,12.38.23,10.07-.89,5.37,2.27.75,7.06.09c4.37-.6,8.32,2.02,9.35,6.22.52,2.14.04,4.16-.8,6.12-1.45,3.43-3.61,6.41-5.94,9.28-.43.53-.89,1.05-1.36,1.6ZM8.27,11.05c1.7,0,3.01-1.24,3.02-2.88.01-1.64-1.28-2.94-2.95-2.97-1.65-.03-3,1.28-3.01,2.9-.01,1.66,1.27,2.94,2.94,2.95Z"/>
  </g>
</svg>