<?xml version="1.0" encoding="UTF-8"?>
<svg id="Layer_2" data-name="Layer 2" xmlns="http://www.w3.org/2000/svg" viewBox="0 0 8.23 9.64">
  <defs>
    <style>
      .cls-1 {
        fill: #000;
        stroke-width: 0px;
      }
    </style>
  </defs>
  <g id="Layer_1-2" data-name="Layer 1">
    <path class="cls-1" d="M6.46,8.2c0,.15,0,.28,0,.41,0,.61-.42,1.03-1.04,1.03-1.46,0-2.91,0-4.37,0-.64,0-1.06-.42-1.06-1.06,0-.88,0-1.75,0-2.63,0-1.16,0-2.32,0-3.48,0-.52.33-.93.83-1.01.2-.03.41-.01.62-.02.08,0,.17,0,.25,0,.05,0,.07-.02.07-.07,0-.12,0-.25,0-.37C1.78.43,2.21,0,2.77,0c1.49,0,2.97,0,4.46,0,.57,0,1,.44,1,1,0,2.06,0,4.13,0,6.19,0,.56-.43,1-1,1-.25,0-.5,0-.77,0ZM7.93,4.11c0-1.02,0-2.04,0-3.06,0-.45-.29-.74-.74-.74-1.46,0-2.91,0-4.37,0-.45,0-.74.29-.74.73,0,2.05,0,4.09,0,6.14,0,.43.29.72.72.72,1.47,0,2.93,0,4.4,0,.44,0,.73-.29.73-.73,0-1.02,0-2.03,0-3.05ZM1.77,1.75c-.24,0-.48.01-.71,0-.44-.02-.76.31-.76.75,0,1.5,0,2.99,0,4.49,0,.54,0,1.08,0,1.63,0,.42.29.72.7.72,1.49,0,2.98,0,4.47,0,.28,0,.49-.14.61-.4.11-.23.05-.48.07-.73-.06,0-.11,0-.15,0-1.08,0-2.17,0-3.25,0-.25,0-.47-.08-.65-.25-.24-.22-.34-.49-.34-.82,0-1.75,0-3.49,0-5.24,0-.05,0-.09,0-.14Z"/>
  </g>
</svg>