<?xml version="1.0" encoding="UTF-8"?>
<svg id="Layer_2" data-name="Layer 2" xmlns="http://www.w3.org/2000/svg" viewBox="0 0 39.54 18.12">
  <defs>
    <style>
      .cls-1 {
        fill: #308388;
        stroke-width: 0px;
      }
    </style>
  </defs>
  <g id="Layer_1-2" data-name="Layer 1">
    <g>
      <path class="cls-1" d="M9.92,6.72c1.86,0,3.36-1.5,3.36-3.36s-1.5-3.36-3.36-3.36-3.36,1.5-3.36,3.36,1.5,3.36,3.36,3.36Z"/>
      <path class="cls-1" d="M13.99,8.61c-1.16-.46-2.43-.72-3.76-.72C4.59,7.89,0,12.48,0,18.12h3.91c0-3.49,2.84-6.33,6.33-6.33.12,0,.24.01.36.02.89-1.29,2.05-2.38,3.4-3.2Z"/>
      <path class="cls-1" d="M16.1,3.36c0-1.86,1.5-3.36,3.36-3.36s3.36,1.5,3.36,3.36-1.5,3.36-3.36,3.36-3.36-1.5-3.36-3.36Z"/>
      <path class="cls-1" d="M22.82,3.36c0-1.86-1.5-3.36-3.36-3.36s-3.36,1.5-3.36,3.36,1.5,3.36,3.36,3.36,3.36-1.5,3.36-3.36Z"/>
      <path class="cls-1" d="M28.99,6.72c1.86,0,3.36-1.5,3.36-3.36s-1.5-3.36-3.36-3.36-3.36,1.5-3.36,3.36,1.5,3.36,3.36,3.36Z"/>
      <path class="cls-1" d="M29.3,7.89c-1.33,0-2.59.26-3.76.72,1.34.82,2.5,1.91,3.4,3.2.12,0,.24-.02.36-.02,3.49,0,6.33,2.84,6.33,6.33h3.91c0-5.64-4.59-10.23-10.23-10.23Z"/>
      <path class="cls-1" d="M27.92,11.95c-.9-1.19-2.05-2.18-3.38-2.88-1.43-.75-3.05-1.19-4.77-1.19s-3.34.43-4.77,1.19c-1.33.7-2.48,1.69-3.38,2.88-1.3,1.72-2.09,3.85-2.09,6.17h3.91c0-1.59.59-3.04,1.56-4.15.87-1,2.04-1.72,3.38-2.02.45-.1.91-.16,1.39-.16s.94.06,1.39.16c1.34.3,2.51,1.02,3.38,2.02.97,1.11,1.56,2.56,1.56,4.15h3.91c0-2.32-.78-4.45-2.09-6.17Z"/>
    </g>
  </g>
</svg>