<?xml version="1.0" encoding="UTF-8"?>
<svg id="Layer_2" data-name="Layer 2" xmlns="http://www.w3.org/2000/svg" viewBox="0 0 9.26 10.14">
  <defs>
    <style>
      .cls-1 {
        fill: #1a1a1a;
        stroke-width: 0px;
      }
    </style>
  </defs>
  <g id="Layer_1-2" data-name="Layer 1">
    <g>
      <path class="cls-1" d="M1.84.88c0,.13,0,.26,0,.38,0,.44.32.76.75.76.41,0,.73-.34.73-.77,0-.12,0-.24,0-.37h2.61c0,.14,0,.28,0,.41,0,.37.3.69.65.73.38.04.72-.2.81-.57.02-.08.02-.16.02-.24,0-.11,0-.22,0-.32.01-.01.02-.02.03-.02.33,0,.66-.02.99.02.48.05.83.47.83.95,0,2.45,0,4.89,0,7.34,0,.5-.43.93-.93.95-.33,0-.67,0-1,0-2.11,0-4.21,0-6.32,0-.51,0-.9-.32-.99-.82,0-.05-.01-.11-.01-.16C0,6.74,0,4.32,0,1.91c0-.61.42-1.03,1.02-1.03.24,0,.48,0,.72,0,.03,0,.06,0,.11,0ZM8.57,3.27H.69s0,.07,0,.1c0,1.91,0,3.82,0,5.72,0,.25.11.35.36.35,2.38,0,4.76,0,7.15,0,.27,0,.37-.1.37-.37,0-1.89,0-3.79,0-5.68,0-.04,0-.08,0-.12Z"/>
      <path class="cls-1" d="M6.21.87c0-.13,0-.27,0-.4,0-.27.19-.47.45-.47.26,0,.47.19.48.45,0,.28,0,.56,0,.85,0,.27-.22.46-.48.45-.26,0-.44-.2-.45-.47,0-.13,0-.27,0-.4Z"/>
      <path class="cls-1" d="M3.04.87c0,.14,0,.27,0,.41,0,.26-.19.46-.44.47-.27,0-.48-.18-.48-.45,0-.28,0-.56,0-.85C2.12.19,2.33,0,2.59,0c.25,0,.45.21.45.47,0,.13,0,.27,0,.4Z"/>
      <path class="cls-1" d="M6.99,5.29c-.24,0-.48,0-.71,0-.14,0-.16-.02-.16-.16,0-.33,0-.65,0-.98,0-.1.04-.14.14-.14.5,0,.99,0,1.49,0,.1,0,.13.04.13.14,0,.34,0,.67,0,1.01,0,.1-.04.14-.13.13-.25,0-.5,0-.75,0h0Z"/>
      <path class="cls-1" d="M2.27,7.46c.25,0,.5,0,.75,0,.09,0,.13.04.13.13,0,.34,0,.68,0,1.02,0,.1-.04.14-.14.14-.5,0-.99,0-1.49,0-.1,0-.13-.04-.13-.14,0-.34,0-.68,0-1.02,0-.09.04-.13.13-.13.25,0,.5,0,.75,0Z"/>
      <path class="cls-1" d="M4.63,7.46c.25,0,.49,0,.74,0,.1,0,.15.03.14.14,0,.33,0,.67,0,1,0,.12-.03.15-.15.15-.49,0-.98,0-1.46,0-.12,0-.15-.02-.15-.15,0-.33,0-.67,0-1,0-.1.04-.14.14-.14.25,0,.49,0,.74,0Z"/>
      <path class="cls-1" d="M2.26,5.29c-.25,0-.5,0-.75,0-.09,0-.12-.04-.12-.12,0-.35,0-.7,0-1.05,0-.1.06-.11.13-.11.27,0,.54,0,.8,0,.23,0,.46,0,.68,0,.1,0,.14.04.14.13,0,.34,0,.67,0,1.01,0,.09-.03.14-.13.14-.25,0-.51,0-.76,0h0Z"/>
      <path class="cls-1" d="M2.27,7.02c-.23,0-.46,0-.7,0-.18,0-.19,0-.19-.18,0-.32,0-.64,0-.96,0-.1.03-.15.14-.14.5,0,.99,0,1.49,0,.1,0,.14.04.14.14,0,.34,0,.67,0,1.01,0,.1-.04.14-.14.14-.25,0-.49,0-.74,0Z"/>
      <path class="cls-1" d="M6.98,7.01c-.24,0-.48,0-.72,0-.12,0-.15-.02-.15-.15,0-.33,0-.66,0-.99,0-.13.02-.14.15-.14.49,0,.97,0,1.46,0,.14,0,.16.01.16.15,0,.32,0,.64,0,.97,0,.14-.02.16-.15.16-.25,0-.49,0-.74,0Z"/>
      <path class="cls-1" d="M6.99,7.46c.25,0,.49,0,.74,0,.1,0,.14.03.14.14,0,.34,0,.67,0,1.01,0,.1-.04.14-.14.14-.5,0-.99,0-1.49,0-.09,0-.13-.04-.13-.13,0-.34,0-.69,0-1.03,0-.09.04-.12.13-.12.25,0,.5,0,.75,0Z"/>
      <path class="cls-1" d="M4.63,5.29c-.25,0-.49,0-.74,0-.1,0-.14-.03-.14-.14,0-.34,0-.67,0-1.01,0-.1.04-.14.14-.14.5,0,.99,0,1.49,0,.1,0,.14.04.14.14,0,.33,0,.67,0,1,0,.13-.02.15-.15.15-.24,0-.48,0-.73,0h0Z"/>
      <path class="cls-1" d="M4.63,7.01c-.25,0-.49,0-.74,0-.1,0-.14-.04-.14-.14,0-.33,0-.67,0-1,0-.1.04-.14.14-.14.49,0,.98,0,1.48,0,.1,0,.14.03.14.14,0,.33,0,.66,0,.99,0,.13-.02.15-.15.15-.24,0-.49,0-.73,0Z"/>
    </g>
  </g>
</svg>