<?xml version="1.0" encoding="UTF-8"?>
<svg id="Layer_2" data-name="Layer 2" xmlns="http://www.w3.org/2000/svg" viewBox="0 0 81 18">
  <defs>
    <style>
      .cls-1 {
        fill: #ccc;
      }

      .cls-1, .cls-2 {
        stroke-width: 0px;
      }

      .cls-2 {
        fill: #1a1a1a;
      }
    </style>
  </defs>
  <g id="Layer_1-2" data-name="Layer 1">
    <g>
      <rect class="cls-1" x="0" y="0" width="81" height="18" rx="9" ry="9"/>
      <g>
        <path class="cls-2" d="M16.5,13.07h-1.42l-3.63-5.78v5.78h-1.42V4.93h1.42l3.64,5.8v-5.8h1.4v8.14Z"/>
        <path class="cls-2" d="M26.96,9.21c0,.8-.14,1.5-.41,2.1-.28.6-.67,1.06-1.18,1.39s-1.1.48-1.77.48-1.25-.16-1.76-.48-.92-.78-1.2-1.38c-.28-.6-.42-1.28-.43-2.06v-.46c0-.79.14-1.5.42-2.1.28-.61.68-1.07,1.19-1.4s1.1-.48,1.76-.48,1.25.16,1.76.48c.51.32.91.78,1.19,1.38.28.6.42,1.29.43,2.09v.45ZM25.55,8.79c0-.9-.17-1.59-.51-2.08-.34-.48-.83-.72-1.45-.72s-1.09.24-1.43.72c-.35.48-.52,1.16-.53,2.03v.47c0,.89.17,1.59.52,2.08s.83.73,1.45.73,1.11-.24,1.45-.72.51-1.17.51-2.09v-.43Z"/>
        <path class="cls-2" d="M32.5,4.93l2.35,6.24,2.34-6.24h1.83v8.14h-1.41v-2.68l.14-3.59-2.41,6.28h-1.01l-2.4-6.27.14,3.59v2.68h-1.41V4.93h1.83Z"/>
        <path class="cls-2" d="M53.22,9.64c0,1.17-.22,2.05-.66,2.65s-1.1.89-2,.89-1.54-.29-1.99-.87-.67-1.44-.69-2.58v-1.41c0-1.17.22-2.05.66-2.63.44-.59,1.11-.88,2.01-.88s1.56.29,1.99.86.66,1.42.67,2.56v1.41ZM51.86,8.12c0-.76-.1-1.33-.31-1.68-.21-.36-.54-.53-1-.53s-.77.17-.98.51c-.21.34-.32.86-.33,1.58v1.85c0,.76.11,1.33.32,1.7.21.37.55.56,1,.56s.76-.17.97-.52c.21-.35.32-.88.33-1.62v-1.84Z"/>
        <path class="cls-2" d="M58.29,8.38h.83c.42,0,.75-.11.99-.32s.37-.52.37-.92-.1-.69-.3-.9-.51-.32-.93-.32c-.37,0-.67.11-.9.32-.23.21-.35.49-.35.83h-1.36c0-.42.11-.8.33-1.14.22-.34.53-.61.93-.8.4-.19.84-.29,1.33-.29.81,0,1.45.2,1.92.61.46.41.7.98.7,1.7,0,.37-.12.71-.35,1.03-.23.32-.53.57-.9.73.45.15.79.39,1.02.72.23.33.35.72.35,1.17,0,.73-.25,1.31-.75,1.75-.5.43-1.16.65-1.98.65s-1.42-.21-1.92-.63-.75-.97-.75-1.67h1.36c0,.36.12.65.36.87s.56.33.97.33.75-.11,1-.33.36-.55.36-.97-.13-.76-.38-.99-.63-.35-1.13-.35h-.8v-1.07Z"/>
        <path class="cls-2" d="M65.88,9.03l.44-4.11h4.37v1.17h-3.24l-.22,1.95c.38-.22.8-.32,1.28-.32.78,0,1.38.25,1.81.74s.65,1.16.65,2-.24,1.49-.72,1.98c-.48.49-1.13.74-1.96.74-.75,0-1.36-.21-1.85-.64-.49-.42-.76-.98-.8-1.67h1.31c.05.4.19.7.42.91s.53.32.91.32c.42,0,.74-.15.98-.45.23-.3.35-.71.35-1.22s-.13-.89-.39-1.18c-.26-.29-.61-.43-1.06-.43-.25,0-.46.03-.63.1-.17.07-.36.19-.56.38l-1.08-.27Z"/>
      </g>
    </g>
  </g>
</svg>