<?xml version="1.0" encoding="UTF-8"?>
<svg id="Layer_2" data-name="Layer 2" xmlns="http://www.w3.org/2000/svg" viewBox="0 0 229.68 229.68">
  <defs>
    <style>
      .cls-1 {
        fill: #fff;
      }

      .cls-2 {
        fill: #a03ab5;
      }
    </style>
  </defs>
  <g id="Layer_1-2" data-name="Layer 1">
    <g>
      <rect class="cls-2" width="229.68" height="229.68" rx="54.7" ry="54.7"/>
      <g>
        <polygon class="cls-1" points="87.93 42.03 98.11 65.55 120.17 52.51 114.58 77.51 140.1 79.93 120.88 96.88 140.1 113.83 114.58 116.24 120.17 141.25 98.11 128.21 87.93 151.73 77.75 128.21 55.7 141.25 61.28 116.24 35.77 113.83 54.99 96.88 35.77 79.93 61.28 77.51 55.7 52.51 77.75 65.55 87.93 42.03"/>
        <polygon class="cls-1" points="161.24 118.95 167.61 133.67 181.43 125.51 177.93 141.17 193.91 142.68 181.87 153.3 193.91 163.91 177.93 165.42 181.43 181.09 167.61 172.92 161.24 187.65 154.86 172.92 141.05 181.09 144.55 165.42 128.57 163.91 140.61 153.3 128.57 142.68 144.55 141.17 141.05 125.51 154.86 133.67 161.24 118.95"/>
      </g>
    </g>
  </g>
</svg>